<?xml version="1.0" encoding="UTF-8" standalone="no"?>
<!DOCTYPE svg PUBLIC "-//W3C//DTD SVG 1.1//EN"
 "http://www.w3.org/Graphics/SVG/1.1/DTD/svg11.dtd">
<!-- Generated by graphviz version 2.47.0 (20210316.0004)
 -->
<!-- Title: dependencies Pages: 1 -->
<svg width="1405pt" height="284pt"
 viewBox="0.00 0.00 1405.00 284.00" xmlns="http://www.w3.org/2000/svg" xmlns:xlink="http://www.w3.org/1999/xlink">
<g id="graph0" class="graph" transform="scale(1 1) rotate(0) translate(4 280)">
<title>dependencies</title>
<polygon fill="white" stroke="transparent" points="-4,4 -4,-280 1401,-280 1401,4 -4,4"/>
<text text-anchor="start" x="677.51" y="-42.4" font-family="sans-serif" font-weight="bold" font-size="14.00">Legend</text>
<polygon fill="#ffffb3" stroke="transparent" points="464.5,-10 464.5,-30 484.5,-30 484.5,-10 464.5,-10"/>
<text text-anchor="start" x="488.13" y="-15.4" font-family="sans-serif" font-size="14.00"> &#160;Declarations</text>
<polygon fill="#8dd3c7" stroke="transparent" points="577.5,-10 577.5,-30 597.5,-30 597.5,-10 577.5,-10"/>
<text text-anchor="start" x="601.23" y="-15.4" font-family="sans-serif" font-size="14.00"> &#160;Module</text>
<polygon fill="#80b1d3" stroke="transparent" points="663.5,-10 663.5,-30 683.5,-30 683.5,-10 663.5,-10"/>
<text text-anchor="start" x="687.28" y="-15.4" font-family="sans-serif" font-size="14.00"> &#160;Bootstrap</text>
<polygon fill="#fdb462" stroke="transparent" points="760.5,-10 760.5,-30 780.5,-30 780.5,-10 760.5,-10"/>
<text text-anchor="start" x="784.17" y="-15.4" font-family="sans-serif" font-size="14.00"> &#160;Providers</text>
<polygon fill="#fb8072" stroke="transparent" points="856.5,-10 856.5,-30 876.5,-30 876.5,-10 856.5,-10"/>
<text text-anchor="start" x="880.23" y="-15.4" font-family="sans-serif" font-size="14.00"> &#160;Exports</text>
<g id="clust1" class="cluster">
<title>cluster_AppModule</title>
<polygon fill="none" stroke="black" stroke-dasharray="1,5" points="8,-70 8,-268 1389,-268 1389,-70 8,-70"/>
</g>
<g id="clust9" class="cluster">
<title>cluster_AppModule_imports</title>
<polygon fill="none" stroke="black" points="1237,-78 1237,-130 1381,-130 1381,-78 1237,-78"/>
</g>
<g id="clust2" class="cluster">
<title>cluster_AppModule_declarations</title>
<polygon fill="none" stroke="black" points="380,-78 380,-130 1229,-130 1229,-78 380,-78"/>
</g>
<g id="clust11" class="cluster">
<title>cluster_AppModule_bootstrap</title>
<polygon fill="none" stroke="black" points="684,-208 684,-260 808,-260 808,-208 684,-208"/>
</g>
<g id="clust12" class="cluster">
<title>cluster_AppModule_providers</title>
<polygon fill="none" stroke="black" points="16,-78 16,-130 372,-130 372,-78 16,-78"/>
</g>
<!-- AppComponent -->
<g id="node1" class="node">
<title>AppComponent</title>
<polygon fill="#ffffb3" stroke="black" points="1220.94,-122 1115.06,-122 1115.06,-86 1220.94,-86 1220.94,-122"/>
<text text-anchor="middle" x="1168" y="-99.8" font-family="Times,serif" font-size="14.00">AppComponent</text>
</g>
<!-- AppModule -->
<g id="node7" class="node">
<title>AppModule</title>
<polygon fill="#8dd3c7" stroke="black" points="787.66,-187 784.66,-191 763.66,-191 760.66,-187 704.34,-187 704.34,-151 787.66,-151 787.66,-187"/>
<text text-anchor="middle" x="746" y="-164.8" font-family="Times,serif" font-size="14.00">AppModule</text>
</g>
<!-- AppComponent&#45;&gt;AppModule -->
<g id="edge1" class="edge">
<title>AppComponent&#45;&gt;AppModule</title>
<path fill="none" stroke="black" d="M1168,-122.13C1168,-142.57 1168,-173 1168,-173 1168,-173 798.01,-173 798.01,-173"/>
<polygon fill="black" stroke="black" points="798.01,-169.5 788.01,-173 798.01,-176.5 798.01,-169.5"/>
</g>
<!-- ChatInboxComponent -->
<g id="node2" class="node">
<title>ChatInboxComponent</title>
<polygon fill="#ffffb3" stroke="black" points="1097.44,-122 956.56,-122 956.56,-86 1097.44,-86 1097.44,-122"/>
<text text-anchor="middle" x="1027" y="-99.8" font-family="Times,serif" font-size="14.00">ChatInboxComponent</text>
</g>
<!-- ChatInboxComponent&#45;&gt;AppModule -->
<g id="edge2" class="edge">
<title>ChatInboxComponent&#45;&gt;AppModule</title>
<path fill="none" stroke="black" d="M1027,-122.27C1027,-140.56 1027,-166 1027,-166 1027,-166 797.77,-166 797.77,-166"/>
<polygon fill="black" stroke="black" points="797.77,-162.5 787.77,-166 797.77,-169.5 797.77,-162.5"/>
</g>
<!-- LoginComponent -->
<g id="node3" class="node">
<title>LoginComponent</title>
<polygon fill="#ffffb3" stroke="black" points="938.28,-122 823.72,-122 823.72,-86 938.28,-86 938.28,-122"/>
<text text-anchor="middle" x="881" y="-99.8" font-family="Times,serif" font-size="14.00">LoginComponent</text>
</g>
<!-- LoginComponent&#45;&gt;AppModule -->
<g id="edge3" class="edge">
<title>LoginComponent&#45;&gt;AppModule</title>
<path fill="none" stroke="black" d="M881,-122.01C881,-138.05 881,-159 881,-159 881,-159 797.97,-159 797.97,-159"/>
<polygon fill="black" stroke="black" points="797.97,-155.5 787.97,-159 797.97,-162.5 797.97,-155.5"/>
</g>
<!-- ProfileComponent -->
<g id="node4" class="node">
<title>ProfileComponent</title>
<polygon fill="#ffffb3" stroke="black" points="805.93,-122 686.07,-122 686.07,-86 805.93,-86 805.93,-122"/>
<text text-anchor="middle" x="746" y="-99.8" font-family="Times,serif" font-size="14.00">ProfileComponent</text>
</g>
<!-- ProfileComponent&#45;&gt;AppModule -->
<g id="edge4" class="edge">
<title>ProfileComponent&#45;&gt;AppModule</title>
<path fill="none" stroke="black" d="M746,-122.11C746,-122.11 746,-140.99 746,-140.99"/>
<polygon fill="black" stroke="black" points="742.5,-140.99 746,-150.99 749.5,-140.99 742.5,-140.99"/>
</g>
<!-- RegistrationComponent -->
<g id="node5" class="node">
<title>RegistrationComponent</title>
<polygon fill="#ffffb3" stroke="black" points="667.77,-122 518.23,-122 518.23,-86 667.77,-86 667.77,-122"/>
<text text-anchor="middle" x="593" y="-99.8" font-family="Times,serif" font-size="14.00">RegistrationComponent</text>
</g>
<!-- RegistrationComponent&#45;&gt;AppModule -->
<g id="edge5" class="edge">
<title>RegistrationComponent&#45;&gt;AppModule</title>
<path fill="none" stroke="black" d="M593,-122.01C593,-138.05 593,-159 593,-159 593,-159 694.19,-159 694.19,-159"/>
<polygon fill="black" stroke="black" points="694.19,-162.5 704.19,-159 694.19,-155.5 694.19,-162.5"/>
</g>
<!-- TesztComponent -->
<g id="node6" class="node">
<title>TesztComponent</title>
<polygon fill="#ffffb3" stroke="black" points="499.65,-122 388.35,-122 388.35,-86 499.65,-86 499.65,-122"/>
<text text-anchor="middle" x="444" y="-99.8" font-family="Times,serif" font-size="14.00">TesztComponent</text>
</g>
<!-- TesztComponent&#45;&gt;AppModule -->
<g id="edge6" class="edge">
<title>TesztComponent&#45;&gt;AppModule</title>
<path fill="none" stroke="black" d="M444,-122.27C444,-140.56 444,-166 444,-166 444,-166 694.33,-166 694.33,-166"/>
<polygon fill="black" stroke="black" points="694.33,-169.5 704.33,-166 694.33,-162.5 694.33,-169.5"/>
</g>
<!-- AppComponent  -->
<g id="node9" class="node">
<title>AppComponent </title>
<polygon fill="#80b1d3" stroke="black" points="800.44,-252 691.56,-252 691.56,-216 800.44,-216 800.44,-252"/>
<text text-anchor="middle" x="746" y="-229.8" font-family="Times,serif" font-size="14.00">AppComponent </text>
</g>
<!-- AppModule&#45;&gt;AppComponent  -->
<g id="edge8" class="edge">
<title>AppModule&#45;&gt;AppComponent </title>
<path fill="none" stroke="black" stroke-dasharray="1,5" d="M746,-187.11C746,-187.11 746,-205.99 746,-205.99"/>
<polygon fill="black" stroke="black" points="742.5,-205.99 746,-215.99 749.5,-205.99 742.5,-205.99"/>
</g>
<!-- AppRoutingModule -->
<g id="node8" class="node">
<title>AppRoutingModule</title>
<polygon fill="#8dd3c7" stroke="black" points="1373.27,-122 1370.27,-126 1349.27,-126 1346.27,-122 1244.73,-122 1244.73,-86 1373.27,-86 1373.27,-122"/>
<text text-anchor="middle" x="1309" y="-99.8" font-family="Times,serif" font-size="14.00">AppRoutingModule</text>
</g>
<!-- AppRoutingModule&#45;&gt;AppModule -->
<g id="edge7" class="edge">
<title>AppRoutingModule&#45;&gt;AppModule</title>
<path fill="none" stroke="black" d="M1309,-122.01C1309,-144.49 1309,-180 1309,-180 1309,-180 797.86,-180 797.86,-180"/>
<polygon fill="black" stroke="black" points="797.86,-176.5 787.86,-180 797.86,-183.5 797.86,-176.5"/>
</g>
<!-- ApiService -->
<g id="node10" class="node">
<title>ApiService</title>
<ellipse fill="#fdb462" stroke="black" cx="310" cy="-104" rx="54.45" ry="18"/>
<text text-anchor="middle" x="310" y="-99.8" font-family="Times,serif" font-size="14.00">ApiService</text>
</g>
<!-- ApiService&#45;&gt;AppModule -->
<g id="edge9" class="edge">
<title>ApiService&#45;&gt;AppModule</title>
<path fill="none" stroke="black" d="M310,-122.13C310,-142.57 310,-173 310,-173 310,-173 694.19,-173 694.19,-173"/>
<polygon fill="black" stroke="black" points="694.19,-176.5 704.19,-173 694.19,-169.5 694.19,-176.5"/>
</g>
<!-- TokenInterceptorService -->
<g id="node11" class="node">
<title>TokenInterceptorService</title>
<ellipse fill="#fdb462" stroke="black" cx="131" cy="-104" rx="107.04" ry="18"/>
<text text-anchor="middle" x="131" y="-99.8" font-family="Times,serif" font-size="14.00">TokenInterceptorService</text>
</g>
<!-- TokenInterceptorService&#45;&gt;AppModule -->
<g id="edge10" class="edge">
<title>TokenInterceptorService&#45;&gt;AppModule</title>
<path fill="none" stroke="black" d="M131,-122.01C131,-144.49 131,-180 131,-180 131,-180 694.21,-180 694.21,-180"/>
<polygon fill="black" stroke="black" points="694.21,-183.5 704.21,-180 694.21,-176.5 694.21,-183.5"/>
</g>
</g>
</svg>
