<?xml version="1.0" encoding="UTF-8" standalone="no"?>
<!DOCTYPE svg PUBLIC "-//W3C//DTD SVG 1.1//EN"
 "http://www.w3.org/Graphics/SVG/1.1/DTD/svg11.dtd">
<!-- Generated by graphviz version 2.47.0 (20210316.0004)
 -->
<!-- Title: dependencies Pages: 1 -->
<svg width="1405pt" height="284pt"
 viewBox="0.00 0.00 1405.00 284.00" xmlns="http://www.w3.org/2000/svg" xmlns:xlink="http://www.w3.org/1999/xlink">
<g id="graph0" class="graph" transform="scale(1 1) rotate(0) translate(4 280)">
<title>dependencies</title>
<polygon fill="white" stroke="transparent" points="-4,4 -4,-280 1401,-280 1401,4 -4,4"/>
<text text-anchor="start" x="677.51" y="-42.4" font-family="sans-serif" font-weight="bold" font-size="14.00">Legend</text>
<polygon fill="#ffffb3" stroke="transparent" points="464.5,-10 464.5,-30 484.5,-30 484.5,-10 464.5,-10"/>
<text text-anchor="start" x="488.13" y="-15.4" font-family="sans-serif" font-size="14.00"> &#160;Declarations</text>
<polygon fill="#8dd3c7" stroke="transparent" points="577.5,-10 577.5,-30 597.5,-30 597.5,-10 577.5,-10"/>
<text text-anchor="start" x="601.23" y="-15.4" font-family="sans-serif" font-size="14.00"> &#160;Module</text>
<polygon fill="#80b1d3" stroke="transparent" points="663.5,-10 663.5,-30 683.5,-30 683.5,-10 663.5,-10"/>
<text text-anchor="start" x="687.28" y="-15.4" font-family="sans-serif" font-size="14.00"> &#160;Bootstrap</text>
<polygon fill="#fdb462" stroke="transparent" points="760.5,-10 760.5,-30 780.5,-30 780.5,-10 760.5,-10"/>
<text text-anchor="start" x="784.17" y="-15.4" font-family="sans-serif" font-size="14.00"> &#160;Providers</text>
<polygon fill="#fb8072" stroke="transparent" points="856.5,-10 856.5,-30 876.5,-30 876.5,-10 856.5,-10"/>
<text text-anchor="start" x="880.23" y="-15.4" font-family="sans-serif" font-size="14.00"> &#160;Exports</text>
<g id="clust1" class="cluster">
<title>cluster_AppModule</title>
<polygon fill="none" stroke="black" stroke-dasharray="1,5" points="8,-70 8,-268 1389,-268 1389,-70 8,-70"/>
</g>
<g id="clust2" class="cluster">
<title>cluster_AppModule_declarations</title>
<polygon fill="none" stroke="black" points="532,-78 532,-130 1381,-130 1381,-78 532,-78"/>
</g>
<g id="clust9" class="cluster">
<title>cluster_AppModule_imports</title>
<polygon fill="none" stroke="black" points="380,-78 380,-130 524,-130 524,-78 380,-78"/>
</g>
<g id="clust11" class="cluster">
<title>cluster_AppModule_bootstrap</title>
<polygon fill="none" stroke="black" points="683,-208 683,-260 807,-260 807,-208 683,-208"/>
</g>
<g id="clust12" class="cluster">
<title>cluster_AppModule_providers</title>
<polygon fill="none" stroke="black" points="16,-78 16,-130 372,-130 372,-78 16,-78"/>
</g>
<!-- AppComponent -->
<g id="node1" class="node">
<title>AppComponent</title>
<polygon fill="#ffffb3" stroke="black" points="1372.94,-122 1267.06,-122 1267.06,-86 1372.94,-86 1372.94,-122"/>
<text text-anchor="middle" x="1320" y="-99.8" font-family="Times,serif" font-size="14.00">AppComponent</text>
</g>
<!-- AppModule -->
<g id="node7" class="node">
<title>AppModule</title>
<polygon fill="#8dd3c7" stroke="black" points="786.66,-187 783.66,-191 762.66,-191 759.66,-187 703.34,-187 703.34,-151 786.66,-151 786.66,-187"/>
<text text-anchor="middle" x="745" y="-164.8" font-family="Times,serif" font-size="14.00">AppModule</text>
</g>
<!-- AppComponent&#45;&gt;AppModule -->
<g id="edge1" class="edge">
<title>AppComponent&#45;&gt;AppModule</title>
<path fill="none" stroke="black" d="M1320,-122.01C1320,-144.49 1320,-180 1320,-180 1320,-180 796.82,-180 796.82,-180"/>
<polygon fill="black" stroke="black" points="796.82,-176.5 786.82,-180 796.82,-183.5 796.82,-176.5"/>
</g>
<!-- ChatInboxComponent -->
<g id="node2" class="node">
<title>ChatInboxComponent</title>
<polygon fill="#ffffb3" stroke="black" points="1249.44,-122 1108.56,-122 1108.56,-86 1249.44,-86 1249.44,-122"/>
<text text-anchor="middle" x="1179" y="-99.8" font-family="Times,serif" font-size="14.00">ChatInboxComponent</text>
</g>
<!-- ChatInboxComponent&#45;&gt;AppModule -->
<g id="edge2" class="edge">
<title>ChatInboxComponent&#45;&gt;AppModule</title>
<path fill="none" stroke="black" d="M1179,-122.13C1179,-142.57 1179,-173 1179,-173 1179,-173 797.01,-173 797.01,-173"/>
<polygon fill="black" stroke="black" points="797.01,-169.5 787.01,-173 797.01,-176.5 797.01,-169.5"/>
</g>
<!-- LoginComponent -->
<g id="node3" class="node">
<title>LoginComponent</title>
<polygon fill="#ffffb3" stroke="black" points="1090.28,-122 975.72,-122 975.72,-86 1090.28,-86 1090.28,-122"/>
<text text-anchor="middle" x="1033" y="-99.8" font-family="Times,serif" font-size="14.00">LoginComponent</text>
</g>
<!-- LoginComponent&#45;&gt;AppModule -->
<g id="edge3" class="edge">
<title>LoginComponent&#45;&gt;AppModule</title>
<path fill="none" stroke="black" d="M1033,-122.27C1033,-140.56 1033,-166 1033,-166 1033,-166 796.88,-166 796.88,-166"/>
<polygon fill="black" stroke="black" points="796.88,-162.5 786.88,-166 796.88,-169.5 796.88,-162.5"/>
</g>
<!-- ProfileComponent -->
<g id="node4" class="node">
<title>ProfileComponent</title>
<polygon fill="#ffffb3" stroke="black" points="957.93,-122 838.07,-122 838.07,-86 957.93,-86 957.93,-122"/>
<text text-anchor="middle" x="898" y="-99.8" font-family="Times,serif" font-size="14.00">ProfileComponent</text>
</g>
<!-- ProfileComponent&#45;&gt;AppModule -->
<g id="edge4" class="edge">
<title>ProfileComponent&#45;&gt;AppModule</title>
<path fill="none" stroke="black" d="M898,-122.01C898,-138.05 898,-159 898,-159 898,-159 796.81,-159 796.81,-159"/>
<polygon fill="black" stroke="black" points="796.81,-155.5 786.81,-159 796.81,-162.5 796.81,-155.5"/>
</g>
<!-- RegistrationComponent -->
<g id="node5" class="node">
<title>RegistrationComponent</title>
<polygon fill="#ffffb3" stroke="black" points="819.77,-122 670.23,-122 670.23,-86 819.77,-86 819.77,-122"/>
<text text-anchor="middle" x="745" y="-99.8" font-family="Times,serif" font-size="14.00">RegistrationComponent</text>
</g>
<!-- RegistrationComponent&#45;&gt;AppModule -->
<g id="edge5" class="edge">
<title>RegistrationComponent&#45;&gt;AppModule</title>
<path fill="none" stroke="black" d="M745,-122.11C745,-122.11 745,-140.99 745,-140.99"/>
<polygon fill="black" stroke="black" points="741.5,-140.99 745,-150.99 748.5,-140.99 741.5,-140.99"/>
</g>
<!-- TesztComponent -->
<g id="node6" class="node">
<title>TesztComponent</title>
<polygon fill="#ffffb3" stroke="black" points="651.65,-122 540.35,-122 540.35,-86 651.65,-86 651.65,-122"/>
<text text-anchor="middle" x="596" y="-99.8" font-family="Times,serif" font-size="14.00">TesztComponent</text>
</g>
<!-- TesztComponent&#45;&gt;AppModule -->
<g id="edge6" class="edge">
<title>TesztComponent&#45;&gt;AppModule</title>
<path fill="none" stroke="black" d="M596,-122.01C596,-138.05 596,-159 596,-159 596,-159 693.1,-159 693.1,-159"/>
<polygon fill="black" stroke="black" points="693.1,-162.5 703.1,-159 693.1,-155.5 693.1,-162.5"/>
</g>
<!-- AppComponent  -->
<g id="node9" class="node">
<title>AppComponent </title>
<polygon fill="#80b1d3" stroke="black" points="799.44,-252 690.56,-252 690.56,-216 799.44,-216 799.44,-252"/>
<text text-anchor="middle" x="745" y="-229.8" font-family="Times,serif" font-size="14.00">AppComponent </text>
</g>
<!-- AppModule&#45;&gt;AppComponent  -->
<g id="edge8" class="edge">
<title>AppModule&#45;&gt;AppComponent </title>
<path fill="none" stroke="black" stroke-dasharray="1,5" d="M745,-187.11C745,-187.11 745,-205.99 745,-205.99"/>
<polygon fill="black" stroke="black" points="741.5,-205.99 745,-215.99 748.5,-205.99 741.5,-205.99"/>
</g>
<!-- AppRoutingModule -->
<g id="node8" class="node">
<title>AppRoutingModule</title>
<polygon fill="#8dd3c7" stroke="black" points="516.27,-122 513.27,-126 492.27,-126 489.27,-122 387.73,-122 387.73,-86 516.27,-86 516.27,-122"/>
<text text-anchor="middle" x="452" y="-99.8" font-family="Times,serif" font-size="14.00">AppRoutingModule</text>
</g>
<!-- AppRoutingModule&#45;&gt;AppModule -->
<g id="edge7" class="edge">
<title>AppRoutingModule&#45;&gt;AppModule</title>
<path fill="none" stroke="black" d="M452,-122.27C452,-140.56 452,-166 452,-166 452,-166 693.33,-166 693.33,-166"/>
<polygon fill="black" stroke="black" points="693.33,-169.5 703.33,-166 693.33,-162.5 693.33,-169.5"/>
</g>
<!-- ApiService -->
<g id="node10" class="node">
<title>ApiService</title>
<ellipse fill="#fdb462" stroke="black" cx="310" cy="-104" rx="54.45" ry="18"/>
<text text-anchor="middle" x="310" y="-99.8" font-family="Times,serif" font-size="14.00">ApiService</text>
</g>
<!-- ApiService&#45;&gt;AppModule -->
<g id="edge9" class="edge">
<title>ApiService&#45;&gt;AppModule</title>
<path fill="none" stroke="black" d="M310,-122.13C310,-142.57 310,-173 310,-173 310,-173 693.29,-173 693.29,-173"/>
<polygon fill="black" stroke="black" points="693.29,-176.5 703.29,-173 693.29,-169.5 693.29,-176.5"/>
</g>
<!-- TokenInterceptorService -->
<g id="node11" class="node">
<title>TokenInterceptorService</title>
<ellipse fill="#fdb462" stroke="black" cx="131" cy="-104" rx="107.04" ry="18"/>
<text text-anchor="middle" x="131" y="-99.8" font-family="Times,serif" font-size="14.00">TokenInterceptorService</text>
</g>
<!-- TokenInterceptorService&#45;&gt;AppModule -->
<g id="edge10" class="edge">
<title>TokenInterceptorService&#45;&gt;AppModule</title>
<path fill="none" stroke="black" d="M131,-122.01C131,-144.49 131,-180 131,-180 131,-180 693.28,-180 693.28,-180"/>
<polygon fill="black" stroke="black" points="693.28,-183.5 703.28,-180 693.28,-176.5 693.28,-183.5"/>
</g>
</g>
</svg>
